<?xml version="1.0" encoding="UTF-8" standalone="no"?><svg xmlns:svg="http://www.w3.org/2000/svg" xmlns="http://www.w3.org/2000/svg" version="1.1" width="1440" height="1440" viewBox="-37 -37 1440 1440"><path style="fill:#000000" d="m 326.25578,1365.7777 c -76.06098,-4.8506 -140.65079,-29.7464 -199.87032,-77.0392 -12.74881,-10.1813 -38.857073,-36.2913 -49.037526,-49.0409 -43.661336,-54.6794 -68.1304576,-113.8251 -75.8189962,-183.2657 -2.03858376,-18.4125 -2.03858376,-728.35978 0,-746.77228 C 9.2174765,240.219 33.686598,181.07337 77.347934,126.39393 87.528387,113.64429 113.63665,87.534285 126.38546,77.353091 181.0612,33.688888 240.20295,9.2181007 309.63888,1.5291105 c 18.41132,-2.038771 728.31102,-2.038771 746.72222,0 69.4359,7.6889902 128.5777,32.1597775 183.2534,75.8239805 12.7488,10.181194 38.8571,36.291199 49.0377,49.040839 43.6612,54.67944 68.1303,113.82507 75.8189,183.26569 2.0385,18.4125 2.0385,728.35978 0,746.77228 -7.6886,69.4406 -32.1577,128.5863 -75.8189,183.2657 -10.1806,12.7496 -36.2889,38.8596 -49.0377,49.0409 -46.9331,37.4808 -99.1397,61.6009 -155.7316,71.9498 -29.924,5.4722 -5.0638,5.1384 -393.61302,5.2851 -197.35172,0.075 -361.15807,-0.014 -364.0141,-0.1957 z m 696.60462,-73.5568 c 70.5937,-7.4926 136.2457,-38.7128 186.668,-88.7686 47.5285,-47.1829 76.7532,-104.594 87.5287,-171.9474 l 2.3263,-14.5408 0,-331.32185 0,-331.32171 -2.457,-16.09808 c -4.1097,-26.92594 -10.0574,-49.05106 -19.5444,-72.70413 -36.9575,-92.14262 -117.1509,-158.01753 -216.8515,-178.132569 -33.2745,-6.713284 -4.241,-6.223873 -369.22207,-6.223873 -268.97453,0 -332.72082,0.257559 -341.16585,1.378444 -82.36823,10.932505 -152.72411,49.962978 -203.28167,112.772098 -37.28979,46.32624 -60.082465,103.21091 -65.168277,162.6433 -0.88485,10.33975 -1.106582,98.97333 -0.844554,337.55346 0.335558,305.56951 0.458835,324.13771 2.220019,334.43771 7.037363,41.1562 18.010542,73.9421 35.187852,105.135 40.79907,74.0881 111.09274,128.327 193.62205,149.3995 13.68932,3.4952 36.49094,7.4272 49.68871,8.5682 2.28482,0.1976 148.7992,0.4327 325.5875,0.5226 275.24876,0.14 323.48409,-0.054 335.70619,-1.3513 z M 833.59069,1272.8736 C 735.33316,1264.2611 597.79607,1210.78 455.0368,1125.6736 329.94359,1051.0989 220.43559,962.65902 169.96256,895.44475 c -23.37977,-31.13458 -32.97583,-53.06164 -32.01527,-73.15511 0.51855,-10.84512 3.15804,-17.00449 10.38931,-24.24361 13.77095,-13.78589 32.62958,-14.42786 114.04795,-3.88238 69.86277,9.04872 96.3363,11.3339 140.72442,12.14725 34.16249,0.62608 59.65864,-0.379 86.71948,-3.41833 64.57371,-7.25252 123.58003,-24.48451 177.59318,-51.86352 37.22852,-18.87095 57.31514,-33.40544 74.57533,-53.96192 30.91108,-36.81457 47.24124,-82.9496 47.24124,-133.46344 0,-79.70486 -41.17015,-147.09722 -110.93935,-181.59923 -30.59827,-15.13137 -75.74141,-31.1948 -115.72366,-41.17835 -109.41776,-27.32154 -231.44723,-27.93956 -391.78573,-1.98424 -25.6726,4.15585 -26.43459,4.0658 -31.59611,-3.73439 -8.52395,-12.88144 -11.60691,-38.25869 -5.27701,-43.43773 0.68472,-0.56028 6.61955,-1.55879 13.18842,-2.21891 6.56887,-0.66011 37.64768,-4.2036 69.06402,-7.87441 94.37416,-11.02707 119.95277,-13.31335 170.13811,-15.20742 120.78497,-4.5586 220.65008,14.56943 309.71285,59.32197 58.2137,29.25137 89.96217,54.66821 114.90051,91.98575 7.65613,11.4566 21.40579,39.28353 25.65993,51.9313 33.58723,99.85611 3.19751,212.74194 -77.76556,288.86794 -47.82626,44.96894 -110.10321,74.10656 -184.86308,86.49217 -37.58101,6.22605 -62.13373,7.86282 -116.83762,7.78866 -45.00264,-0.0613 -55.15068,-0.44432 -136.05092,-5.13881 -31.69239,-1.83909 -97.00233,-3.18681 -102.69279,-2.11921 -3.58687,0.67303 -3.89116,0.98285 -3.29545,3.35632 2.21628,8.83112 13.39946,26.99264 25.81021,41.91583 99.18465,119.26377 438.06474,300.03917 606.39328,323.47997 6.06028,0.8439 11.09448,5.9862 15.60961,15.945 6.7423,14.8708 9.56479,35.165 5.70904,41.0499 -1.80501,2.755 -1.91811,2.777 -13.48004,2.6354 -6.41299,-0.079 -16.09971,-0.5319 -21.52617,-1.0076 z" /></svg>
